<mxfile host="65bd71144e">
    <diagram id="x72V_j3Mn_Krhx0sthZp" name="Page-1">
        <mxGraphModel dx="648" dy="466" grid="1" gridSize="10" guides="1" tooltips="1" connect="1" arrows="1" fold="1" page="1" pageScale="1" pageWidth="850" pageHeight="1100" math="0" shadow="0">
            <root>
                <mxCell id="0"/>
                <mxCell id="1" parent="0"/>
                <mxCell id="2" value="&amp;nbsp;Resume (Student)" style="shape=parallelogram;html=1;strokeWidth=2;perimeter=parallelogramPerimeter;whiteSpace=wrap;rounded=1;arcSize=12;size=0.23;" vertex="1" parent="1">
                    <mxGeometry x="40" y="210" width="180" height="60" as="geometry"/>
                </mxCell>
                <mxCell id="3" value="Frontend" style="text;whiteSpace=wrap;" vertex="1" parent="1">
                    <mxGeometry x="70" y="290" width="110" height="40" as="geometry"/>
                </mxCell>
            </root>
        </mxGraphModel>
    </diagram>
</mxfile>